<svg version="1.1" id="Layer_1" xmlns="http://www.w3.org/2000/svg" xmlns:xlink="http://www.w3.org/1999/xlink" x="0px" y="0px"
	 width="100%" viewBox="0 0 1024 1024" enable-background="new 0 0 1024 1024" xml:space="preserve">
<path fill="#000000" opacity="1.000000" stroke="none" 
	d="
M515.331909,480.000092 
	C515.334473,537.819763 515.349731,595.139404 515.328308,652.459045 
	C515.323914,664.143982 513.887939,675.678040 511.022797,687.003906 
	C504.555389,712.569092 488.029022,728.963196 463.635651,737.549255 
	C439.906708,745.901428 416.143860,746.295288 392.588501,736.241394 
	C364.979218,724.457275 350.257111,702.661377 344.898804,674.117065 
	C343.569092,667.033386 341.121857,664.138367 334.088196,662.520264 
	C301.289215,654.974487 280.412842,633.243591 266.723694,603.672241 
	C258.656281,586.244995 254.455109,567.857544 254.712936,548.580017 
	C254.819992,540.576355 255.926208,532.670105 258.373993,525.026306 
	C259.187469,522.486023 259.018921,520.267639 258.070953,517.810974 
	C239.433960,469.514740 253.785934,416.896973 293.563263,385.114044 
	C297.327515,382.106293 301.250214,379.244080 305.355408,376.732880 
	C308.495636,374.811981 310.017365,372.663177 310.070648,368.784058 
	C310.341858,349.047302 314.999542,330.531372 326.873688,314.395233 
	C341.357452,294.712708 360.156677,280.754089 384.594177,277.443878 
	C395.556366,275.959015 402.693787,271.508270 410.064240,263.988312 
	C425.359894,248.382278 444.686523,240.293594 466.365021,237.556198 
	C480.545837,235.765564 494.520630,236.770340 508.543732,239.046188 
	C513.841370,239.905960 515.475037,242.097656 515.461487,247.556381 
	C515.269775,324.870575 515.331360,402.185394 515.331909,480.000092 
M305.150116,517.462402 
	C313.194031,513.124573 322.003265,511.312775 330.906219,510.116974 
	C334.519440,509.631653 336.302368,507.965149 337.965759,504.930023 
	C345.115265,491.884613 361.306152,487.487946 373.641846,495.371948 
	C383.031586,501.373169 387.317871,510.476013 386.133728,521.415039 
	C384.935577,532.484070 379.120758,540.705444 368.141876,544.401367 
	C357.317017,548.045593 348.141418,544.957581 340.598328,536.814636 
	C338.457642,534.503784 336.617310,533.672302 333.339233,534.074829 
	C321.359619,535.545959 311.542175,541.261719 303.049530,549.257690 
	C286.218262,565.104370 281.164490,585.057312 293.774750,603.818237 
	C305.798645,621.706848 322.500488,633.130432 343.023834,639.251282 
	C346.539856,640.299927 348.414337,639.383667 349.817688,635.772034 
	C355.481201,621.196777 365.075409,609.712463 378.232788,601.263306 
	C380.342743,599.908447 381.405762,598.395874 381.811188,595.766907 
	C384.577637,577.827148 396.806610,571.914490 407.568115,572.244202 
	C418.164551,572.568970 426.378601,577.754517 430.359344,588.055115 
	C434.439697,598.613525 432.996216,608.545898 424.996124,616.722046 
	C417.297241,624.590393 407.788849,626.479065 397.451172,622.581482 
	C394.406647,621.433594 392.231567,621.877747 389.692749,623.715942 
	C372.472992,636.183960 364.894440,656.715393 371.057007,677.135681 
	C378.518738,701.861084 396.507965,714.826660 421.268585,718.237000 
	C444.849976,721.484863 464.522675,713.722351 479.108185,694.309326 
	C488.654541,681.603271 490.493744,666.674927 490.521545,651.678040 
	C490.745880,530.703308 490.650116,409.727966 490.651581,288.752808 
	C490.651672,281.420990 490.491211,274.084564 490.707611,266.759186 
	C490.825317,262.774231 489.043304,261.508209 485.376495,261.355225 
	C480.342896,261.145233 475.393494,261.846619 470.444519,262.404602 
	C452.267273,264.454041 436.495941,271.200928 424.420868,285.617157 
	C410.737061,301.954010 410.697601,325.313629 424.666199,341.491302 
	C426.785980,343.946289 428.858215,345.271027 432.436279,344.177155 
	C436.075470,343.064636 440.006653,343.187256 443.761658,344.361389 
	C453.634125,347.448425 460.290985,357.141663 459.205902,366.831329 
	C457.943390,378.105377 449.701630,386.618713 439.367401,387.323517 
	C427.918396,388.104401 418.463928,381.532715 416.023682,370.575409 
	C415.357849,367.585541 414.070679,365.582245 411.938446,363.549866 
	C395.567535,347.945282 386.865723,329.417664 390.536499,306.275482 
	C390.758881,304.873749 391.146881,303.281616 389.989960,302.005157 
	C389.649506,301.870209 389.333740,301.626953 389.040253,301.651337 
	C388.223785,301.719269 387.398834,301.831970 386.608368,302.043427 
	C367.640717,307.117401 353.647552,318.341217 343.390381,335.141266 
	C321.930420,370.290039 341.473450,412.375336 372.993958,424.285248 
	C376.429169,425.583252 378.981720,425.789825 382.026031,423.151001 
	C386.551025,419.228760 392.132751,417.382446 398.212311,417.745697 
	C409.895020,418.443787 419.799469,427.654266 421.274384,439.048279 
	C422.914246,451.716522 415.852386,463.326447 404.325409,466.912872 
	C392.679596,470.536255 380.941284,465.804535 375.226410,454.646606 
	C373.450073,451.178467 371.205811,449.467590 367.594788,448.410553 
	C349.983429,443.255280 336.119873,432.891205 325.765778,417.739960 
	C322.031067,412.274872 319.040009,406.378204 315.877350,400.196259 
	C313.975891,401.417542 312.536987,402.225037 311.224213,403.201996 
	C280.066498,426.390045 264.983765,467.900635 280.167572,506.318756 
	C283.889282,515.735474 286.676849,524.181946 281.582367,533.593201 
	C281.473175,533.794922 281.727478,534.193359 282.039185,535.321350 
	C288.912476,528.296753 296.013947,522.120239 305.150116,517.462402 
z"/>
<path fill="#000000" opacity="1.000000" stroke="none" 
	d="
M769.899170,668.786499 
	C763.774780,675.919006 756.014282,678.177490 747.322510,678.177063 
	C689.001953,678.174500 630.681396,678.178345 572.360840,678.178406 
	C565.069031,678.178467 565.042725,678.168823 563.592468,685.433838 
	C555.205750,727.445740 532.439636,759.444763 496.271515,782.098633 
	C494.902557,782.956116 493.638641,784.189148 491.777527,784.104492 
	C490.245880,783.295715 490.708588,781.801208 490.700287,780.572571 
	C490.648376,772.907898 490.753265,765.241516 490.633575,757.578369 
	C490.592621,754.955322 491.532898,753.284119 493.716644,751.828918 
	C522.539917,732.622253 536.413452,704.906372 539.779236,671.100586 
	C541.149841,657.335022 541.679382,643.564941 541.668274,629.744568 
	C541.621033,571.090332 541.647522,512.436096 541.653503,453.781891 
	C541.654175,446.890320 541.672607,446.922394 548.450500,446.924164 
	C613.102600,446.940826 677.754761,446.930450 742.406860,446.985168 
	C747.224182,446.989258 752.058289,447.256409 756.854858,447.712952 
	C767.773499,448.752258 775.299988,458.320099 775.327332,471.257599 
	C775.388916,500.417969 775.348145,529.578552 775.348389,558.739014 
	C775.348694,589.732483 775.275818,620.726196 775.408875,651.719116 
	C775.435852,657.995056 773.832764,663.518799 769.899170,668.786499 
M636.500122,471.410797 
	C615.671448,471.407349 594.842834,471.396240 574.014160,471.405151 
	C567.660461,471.407867 567.419983,471.628632 567.395813,477.741547 
	C567.354248,488.238953 567.587097,498.743774 567.249817,509.230835 
	C567.094910,514.046082 568.958008,515.155090 573.378662,515.102356 
	C590.205688,514.901550 607.036499,515.006104 623.865845,515.007507 
	C663.523071,515.010742 703.180237,515.021362 742.837463,515.025940 
	C749.585144,515.026672 749.639343,514.981689 749.646973,508.496429 
	C749.658875,498.332092 749.658569,488.167755 749.644531,478.003418 
	C749.635498,471.434662 749.620300,471.416138 742.976013,471.414856 
	C707.817383,471.408020 672.658813,471.411316 636.500122,471.410797 
M668.323914,557.503662 
	C668.329773,564.834167 668.412964,572.165894 668.303345,579.494690 
	C668.259827,582.406067 669.216431,583.750610 672.306091,583.742981 
	C696.796448,583.682495 721.286987,583.690613 745.777344,583.740662 
	C748.518005,583.746277 749.684326,582.718262 749.667480,579.920471 
	C749.596436,568.092163 749.589600,556.262878 749.668518,544.434692 
	C749.688660,541.413818 748.422119,540.322083 745.470581,540.329224 
	C721.146912,540.388428 696.822998,540.385681 672.499268,540.346130 
	C669.557068,540.341370 668.236877,541.514099 668.317627,544.511902 
	C668.425232,548.507202 668.331299,552.507935 668.323914,557.503662 
M668.476624,649.811401 
	C669.408875,652.394043 671.687256,651.824646 673.565979,651.827881 
	C697.198364,651.868835 720.831116,651.784302 744.462830,651.908325 
	C748.316528,651.928528 749.782776,650.728638 749.711670,646.769592 
	C749.517517,635.955261 749.548340,625.133850 749.700134,614.318176 
	C749.750122,610.755676 748.685120,609.247681 744.884399,609.266541 
	C721.085815,609.384521 697.286133,609.378174 673.487427,609.271057 
	C669.640320,609.253784 668.190125,610.547607 668.260986,614.494507 
	C668.467285,625.974304 668.355957,637.459778 668.476624,649.811401 
M600.500122,540.352295 
	C591.174744,540.348755 581.846741,540.470703 572.525146,540.281982 
	C568.618713,540.202881 567.248169,541.630676 567.309204,545.529602 
	C567.483765,556.683899 567.485718,567.845154 567.281921,578.998657 
	C567.211609,582.848083 568.764587,583.799194 572.309631,583.781921 
	C594.456909,583.674194 616.605347,583.664795 638.752380,583.791870 
	C642.409485,583.812866 643.760925,582.679565 643.698792,578.936829 
	C643.513428,567.782959 643.506531,556.622253 643.684021,545.468262 
	C643.746155,541.560791 642.395813,540.221741 638.467529,540.283203 
	C626.147705,540.476074 613.822998,540.352905 600.500122,540.352295 
M632.450195,651.852722 
	C633.781677,651.844849 635.113159,651.841064 636.444580,651.828247 
	C643.390137,651.761353 643.598267,651.568359 643.610291,644.375366 
	C643.626953,634.389465 643.450195,624.400085 643.676453,614.419434 
	C643.765320,610.497131 642.509460,609.219421 638.561157,609.246765 
	C616.592834,609.399048 594.622375,609.406372 572.654175,609.246765 
	C568.399353,609.215820 567.212708,610.821411 567.289307,614.838257 
	C567.489136,625.319763 567.551086,635.813232 567.257263,646.290405 
	C567.130798,650.801819 568.808289,651.962524 573.046997,651.926270 
	C592.518127,651.759827 611.991455,651.854248 632.450195,651.852722 
z"/>
<path fill="#000000" opacity="1.000000" stroke="none" 
	d="
M665.428955,328.479492 
	C680.018982,335.059845 693.168701,342.815735 703.009766,355.546143 
	C718.050720,375.003174 725.562073,397.100464 727.880859,421.111694 
	C726.146301,422.892365 724.212341,422.353058 722.462402,422.354156 
	C664.148499,422.390289 605.834412,422.349487 547.520813,422.481323 
	C542.984680,422.491608 541.546326,421.167847 541.557495,416.550415 
	C541.697754,358.569855 541.692322,300.588745 541.576660,242.608078 
	C541.567810,238.163757 542.735718,236.597443 547.435059,236.555115 
	C588.699463,236.183517 620.213501,258.546387 633.109192,297.661774 
	C634.097839,300.660461 635.006897,303.685852 636.024536,306.674469 
	C637.991150,312.449829 641.494202,316.793579 647.201416,319.410858 
	C653.253845,322.186432 659.136108,325.332947 665.428955,328.479492 
z"/>
</svg>